<?xml version="1.0" encoding="UTF-8" standalone="no"?><!-- Generator: Gravit.io --><svg xmlns="http://www.w3.org/2000/svg" xmlns:xlink="http://www.w3.org/1999/xlink" style="isolation:isolate" viewBox="0 0 375 125" width="375pt" height="125pt"><defs><clipPath id="_clipPath_wL9iHo4Sep0Kcyc5GZiDPX5l7WWvJTCX"><rect width="375" height="125"/></clipPath></defs><g clip-path="url(#_clipPath_wL9iHo4Sep0Kcyc5GZiDPX5l7WWvJTCX)"><g><linearGradient id="_lgradient_1" x1="0.5" y1="0" x2="0.49999999999999994" y2="0.18237710084033612" gradientTransform="matrix(473,0,0,473,-48,32.5)" gradientUnits="userSpaceOnUse"><stop offset="0%" stop-opacity="1" style="stop-color:rgb(254,106,92)"/><stop offset="100%" stop-opacity="1" style="stop-color:rgb(203,47,117)"/></linearGradient><circle vector-effect="non-scaling-stroke" cx="188.50000000000003" cy="269" r="236.5" fill="url(#_lgradient_1)"/><g><circle vector-effect="non-scaling-stroke" cx="187.50000000000003" cy="31.88177339901464" r="31.881773399014662" fill="rgb(255,255,255)"/><g opacity="0.8"><path d=" M 197.946 37.592 C 198.717 36.78 198.717 35.522 197.946 34.751 C 194.984 31.748 190.114 26.595 190.033 26.514 C 189.627 26.108 189.1 25.905 188.572 25.905 C 188.085 25.905 187.558 26.108 187.152 26.514 C 187.071 26.595 181.877 31.667 178.915 34.67 C 178.144 35.441 178.144 36.699 178.915 37.51 C 179.686 38.281 180.985 38.281 181.755 37.51 L 188.572 30.775 L 195.105 37.592 C 195.876 38.362 197.175 38.362 197.946 37.592 Z " fill="rgb(252,103,93)"/></g></g></g></g></svg>